<?xml version="1.0" encoding="UTF-8"?>
<svg id="Objects" xmlns="http://www.w3.org/2000/svg" version="1.1" viewBox="0 0 277 277">
  <!-- Generator: Adobe Illustrator 29.0.1, SVG Export Plug-In . SVG Version: 2.1.0 Build 192)  -->
  <path d="M212.4,109.5c12,0,21.8-9.8,21.8-21.8s-9.8-21.8-21.8-21.8-21.8,9.8-21.8,21.8,9.8,21.8,21.8,21.8Z"/>
  <path d="M232.8,142.7c-1.9,5.9-3.7,11.8-5.4,17.8,0,0-.1-.2-.2-.3l-5.4-7.8c-1.8-2.6-3.6-5.2-5.4-7.7-3.7-5.1-7.3-10.3-11.1-15.3-3.7-5.1-7.5-10.1-11.3-15.1-3.8-5-7.6-10-11.5-15-3.9-5-7.8-9.9-11.8-14.8-3.9-4.9-8-9.7-12-14.6-4.1-4.8-8.2-9.6-12.4-14.3l-11.7-13.2-2.3,16.3c-1.5,10.5-2.7,21.1-3.7,31.7-.5,5.3-.9,10.6-1.3,16-.4,5.3-.6,10.7-.7,16.1,2.1-5,4.1-10,6-15,1.9-5,3.7-10,5.4-15.1,1.6-4.6,3.1-9.2,4.6-13.8.5.8,1,1.5,1.5,2.3,3.5,5.2,7,10.5,10.6,15.6,1.9,2.7,3.8,5.4,5.7,8.1l-68,110.6,99-68.7c2.8,3.6,5.6,7.1,8.4,10.7,1.9,2.5,3.9,4.9,5.9,7.4l6,7.3c4,4.8,8,9.7,12.1,14.5l13,15,2.6-18.6c.9-6.3,1.6-12.6,2.4-19,.7-6.3,1.4-12.7,2-19.1,1.1-12.8,2-25.5,2.1-38.5-5,12-9.1,24.1-13,36.3Z"/>
  <polygon points="132.9 198.4 192.3 180.1 185.2 164.8 132.9 198.4"/>
  <polygon points="122.8 131.6 51.1 131.6 43.9 141.4 115.6 141.4 122.8 131.6"/>
  <polygon points="110.8 154.4 39.1 154.4 31.9 164.2 103.6 164.2 110.8 154.4"/>
  <polygon points="27.2 177.1 19.9 187 91.6 187 98.8 177.1 27.2 177.1"/>
</svg>