<?xml version="1.0" encoding="UTF-8"?>
<svg id="Objects" xmlns="http://www.w3.org/2000/svg" version="1.1" viewBox="0 0 277 277">
  <!-- Generator: Adobe Illustrator 29.0.1, SVG Export Plug-In . SVG Version: 2.1.0 Build 192)  -->
  <path d="M214,68.3H63c-10.8,0-19.5,8.8-19.5,19.5v101.3c0,10.8,8.8,19.5,19.5,19.5h150.9c10.8,0,19.5-8.8,19.5-19.5v-101.3c0-10.8-8.8-19.5-19.5-19.5ZM219.8,189.1c0,3.2-2.6,5.9-5.9,5.9H63c-3.2,0-5.9-2.6-5.9-5.9v-101.3c0-3.2,2.6-5.9,5.9-5.9h150.9c3.2,0,5.9,2.6,5.9,5.9v101.3Z"/>
  <path d="M138.5,131.5c-3.8,0-7,3.1-7,7s3.1,7,7,7,7-3.1,7-7-3.1-7-7-7ZM138.5,143.5c-2.8,0-5-2.2-5-5s2.2-5,5-5,5,2.2,5,5-2.2,5-5,5Z"/>
  <path d="M138.5,123.5c-8.3,0-15,6.7-15,15s6.7,15,15,15,15-6.7,15-15-6.7-15-15-15ZM138.5,151.5c-7.2,0-13.1-5.9-13.1-13.1s5.9-13.1,13.1-13.1,13.1,5.9,13.1,13.1-5.9,13.1-13.1,13.1Z"/>
  <path d="M106.6,122.2c1.9,0,3.5-1.5,3.5-3.5s-1.5-3.5-3.5-3.5-3.5,1.6-3.5,3.5,1.5,3.5,3.5,3.5Z"/>
  <path d="M106.6,154.8c-1.9,0-3.5,1.5-3.5,3.5s1.5,3.5,3.5,3.5,3.5-1.5,3.5-3.5-1.5-3.5-3.5-3.5Z"/>
  <path d="M170.3,122.2c1.9,0,3.5-1.5,3.5-3.5s-1.5-3.5-3.5-3.5-3.5,1.6-3.5,3.5,1.5,3.5,3.5,3.5Z"/>
  <path d="M170.3,154.8c-1.9,0-3.5,1.5-3.5,3.5s1.5,3.5,3.5,3.5,3.5-1.5,3.5-3.5-1.5-3.5-3.5-3.5Z"/>
  <path d="M115.5,137.5h-37c0-6.3,1.1-12.5,3.2-18.5.2-.5,0-1.1-.6-1.2-.5-.2-1.1,0-1.2.6-2.1,6.1-3.2,12.6-3.3,19.1h-8.2c-.5,0-1,.4-1,1s.4,1,1,1h8.2c0,6.5,1.2,12.9,3.3,19.1.1.4.5.7.9.7s.2,0,.3,0c.5-.2.8-.7.6-1.2-2-5.9-3.1-12.1-3.2-18.5h37c.5,0,1-.4,1-1s-.4-1-1-1Z"/>
  <path d="M208.5,137.5h-8.2c0-6.5-1.2-13-3.3-19.1-.2-.5-.7-.8-1.2-.6-.5.2-.8.7-.6,1.2,2,5.9,3.1,12.1,3.2,18.5h-37c-.5,0-1,.4-1,1s.4,1,1,1h37c0,6.3-1.1,12.5-3.2,18.5-.2.5,0,1.1.6,1.2.1,0,.2,0,.3,0,.4,0,.8-.3.9-.7,2.1-6.1,3.2-12.6,3.3-19.1h8.2c.5,0,1-.4,1-1s-.4-1-1-1Z"/>
</svg>