<?xml version="1.0" encoding="UTF-8"?>
<svg id="Objects" xmlns="http://www.w3.org/2000/svg" version="1.1" viewBox="0 0 277 277">
  <!-- Generator: Adobe Illustrator 29.0.1, SVG Export Plug-In . SVG Version: 2.1.0 Build 192)  -->
  <path d="M216.3,88.3c-7.3-7.3-19.1-7.3-26.3,0l-122.1,122.1c-7.3,7.3-7.3,19.1,0,26.3,7.3,7.3,19.1,7.3,26.3,0l122.1-122.1c7.3-7.3,7.3-19.1,0-26.4ZM200.1,123.3l-18.8-18.8,12.4-12.4c5.2-5.2,13.6-5.2,18.8,0,5.2,5.2,5.2,13.6,0,18.8l-12.4,12.4ZM71.6,233c-5.2-5.2-5.2-13.6,0-18.8l12.4-12.4,18.8,18.8-12.4,12.4c-5.2,5.2-13.6,5.2-18.8,0Z"/>
  <polygon points="155.6 44.8 163 59.8 179.5 62.2 167.5 73.9 170.4 90.3 155.6 82.6 140.8 90.3 143.6 73.9 131.7 62.2 148.2 59.8 155.6 44.8"/>
  <polygon points="99.4 78.3 104.1 87.7 114.5 89.3 106.9 96.6 108.7 107 99.4 102.1 90 107 91.8 96.6 84.3 89.3 94.7 87.7 99.4 78.3"/>
  <polygon points="69.1 125.4 73.4 134.1 83.1 135.5 76.1 142.3 77.7 151.9 69.1 147.4 60.6 151.9 62.2 142.3 55.2 135.5 64.9 134.1 69.1 125.4"/>
</svg>