<?xml version="1.0" encoding="UTF-8"?>
<svg id="Objects" xmlns="http://www.w3.org/2000/svg" version="1.1" viewBox="0 0 277 277">
  <!-- Generator: Adobe Illustrator 29.0.1, SVG Export Plug-In . SVG Version: 2.1.0 Build 192)  -->
  <path d="M248.6,103.5c-1.9-1.1-4.1-1.1-6,0l-35.1,20.3v-29.8c0-9.9-8.1-18-18-18h-117.9c-9.9,0-18,8.1-18,18v102.8c0,9.9,8.1,18,18,18h117.9c9.9,0,18-8.1,18-18v-29.8l35.1,20.3c.9.5,2,.8,3,.8s2.1-.3,3-.8c1.9-1.1,3-3.1,3-5.2v-73.4c0-2.1-1.1-4.1-3-5.2ZM96.5,118.5h-24v-24h24v24ZM125.1,118.5h-24v-24h24v24ZM153.7,118.5h-24v-24h24v24Z"/>
</svg>