<?xml version="1.0" encoding="UTF-8"?>
<svg id="Objects" xmlns="http://www.w3.org/2000/svg" version="1.1" viewBox="0 0 277 277">
  <!-- Generator: Adobe Illustrator 29.0.1, SVG Export Plug-In . SVG Version: 2.1.0 Build 192)  -->
  <path d="M164.2,186.4v-21c10.9-7.9,18-20.7,18-35.1h0c4.3,0,7.8-3.5,7.8-7.8v-11.8c0-4.3-3.5-7.8-7.8-7.8v-10.8c0-24.1-19.6-43.7-43.7-43.7s-43.7,19.6-43.7,43.7v10.8c-4.3,0-7.8,3.5-7.8,7.8v11.8c0,4.3,3.5,7.8,7.8,7.8h0c0,14.4,7.2,27.2,18,35.1v21l-57.6,32.8v20h166.6v-20l-57.6-32.8Z"/>
  <polygon points="89.8 32.4 67.5 32.4 58.3 32.4 58.3 41.6 58.3 64 67.5 64 67.5 41.6 89.8 41.6 89.8 32.4"/>
  <polygon points="58.3 161.3 58.3 183.7 58.3 192.9 67.5 192.9 89.8 192.9 89.8 183.7 67.5 183.7 67.5 161.3 58.3 161.3"/>
  <polygon points="187.2 192.9 209.5 192.9 218.7 192.9 218.7 183.7 218.7 161.3 209.5 161.3 209.5 183.7 187.2 183.7 187.2 192.9"/>
  <polygon points="218.7 64 218.7 41.6 218.7 32.4 209.5 32.4 187.2 32.4 187.2 41.6 209.5 41.6 209.5 64 218.7 64"/>
</svg>