<?xml version="1.0" encoding="UTF-8"?>
<svg id="Objects" xmlns="http://www.w3.org/2000/svg" version="1.1" viewBox="0 0 277 277">
  <!-- Generator: Adobe Illustrator 29.0.1, SVG Export Plug-In . SVG Version: 2.1.0 Build 192)  -->
  <g>
    <path d="M152.4,115.9V44.6c-8.3-2.4-17.1-3.7-26.2-3.7-24,0-45.9,8.9-62.7,23.6l88.9,51.3Z"/>
    <path d="M121.9,103.2l-61.7-35.6c-17.9,17.3-29,41.5-29,68.3s.6,12.6,1.8,18.6l88.9-51.3Z"/>
    <path d="M95.7,123.2l-61.7,35.6c7.8,31.5,31.3,56.7,61.7,67v-102.6Z"/>
  </g>
  <path d="M205.5,193.8v-14.7c7.6-5.5,12.6-14.5,12.6-24.6h0c3,0,5.5-2.5,5.5-5.5v-8.2c0-3-2.5-5.5-5.5-5.5v-7.5c0-16.9-13.7-30.6-30.6-30.6s-30.6,13.7-30.6,30.6v7.5c-3,0-5.5,2.5-5.5,5.5v8.2c0,3,2.5,5.5,5.5,5.5s0,0,0,0c0,10.1,5,19,12.6,24.6v14.7l-40.3,23v14h116.5v-14l-40.3-23Z"/>
  <path d="M136.3,175v-6.9c3.6-2.6,5.9-6.8,5.9-11.5h0c1.4,0,2.6-1.1,2.6-2.6v-3.8c0-1.4-1.1-2.6-2.6-2.6v-3.5c0-7.9-6.4-14.3-14.3-14.3s-14.3,6.4-14.3,14.3v3.5c-1.4,0-2.6,1.1-2.6,2.6v3.8c0,1.4,1.1,2.6,2.6,2.6h0c0,4.7,2.3,8.9,5.9,11.5v6.9l-18.9,10.7v6.5h54.5v-6.5l-18.9-10.7Z"/>
</svg>