<?xml version="1.0" encoding="UTF-8"?>
<svg id="Objects" xmlns="http://www.w3.org/2000/svg" version="1.1" viewBox="0 0 277 277">
  <!-- Generator: Adobe Illustrator 29.0.1, SVG Export Plug-In . SVG Version: 2.1.0 Build 192)  -->
  <path d="M138.5,107.9c-15.8,0-28.7,12.8-28.7,28.7s12.8,28.7,28.7,28.7,28.7-12.8,28.7-28.7-12.8-28.7-28.7-28.7Z"/>
  <path d="M138.5,73.4c-59.3,0-107.3,63.2-107.3,63.2,0,0,48,63.2,107.3,63.2s107.3-63.2,107.3-63.2c0,0-48-63.2-107.3-63.2ZM92.9,136.6c0-25.1,20.4-45.6,45.6-45.6s45.6,20.4,45.6,45.6-20.4,45.6-45.6,45.6-45.6-20.4-45.6-45.6ZM44,136.6c10.5-11.9,36.4-38.4,68.3-48.9-17.4,9.3-29.3,27.7-29.3,48.9s11.8,39.5,29.2,48.8c-31.8-10.5-57.7-36.9-68.2-48.8ZM164.6,185.5c17.4-9.3,29.3-27.7,29.3-48.9s-11.8-39.5-29.2-48.8c31.8,10.5,57.7,36.9,68.2,48.8-10.5,11.9-36.4,38.4-68.3,48.9Z"/>
</svg>