<?xml version="1.0" encoding="UTF-8"?>
<svg id="Objects" xmlns="http://www.w3.org/2000/svg" version="1.1" viewBox="0 0 277 277">
  <!-- Generator: Adobe Illustrator 29.0.1, SVG Export Plug-In . SVG Version: 2.1.0 Build 192)  -->
  <path d="M198.8,99.9c0-10.9-3-21.1-8.2-29.9l-17,29.5-33.8-58.5-33.8,58.5-17-29.5c-5.2,8.8-8.2,19-8.2,29.9,0,29.9,22.3,54.7,51.2,58.4v60.3h15.4v-60.3c28.9-3.8,51.2-28.5,51.2-58.4Z"/>
  <path d="M166.9,188.8c-10.7,10.7-15.5,23.2-10.8,28,4.7,4.7,17.3,0,28-10.8,10.7-10.7,15.5-23.2,10.8-28-4.7-4.7-17.3,0-28,10.8Z"/>
  <path d="M84.8,178.1c-4.7,4.8,0,17.3,10.8,28,10.7,10.7,23.2,15.5,28,10.8,4.7-4.8,0-17.3-10.8-28-10.7-10.7-23.2-15.5-28-10.8Z"/>
</svg>