<?xml version="1.0" encoding="UTF-8"?>
<svg id="Objects" xmlns="http://www.w3.org/2000/svg" version="1.1" viewBox="0 0 277 277">
  <!-- Generator: Adobe Illustrator 29.0.1, SVG Export Plug-In . SVG Version: 2.1.0 Build 192)  -->
  <path d="M138.5,178.9c20.4,0,37-16.5,37-37v-65.2c0-20.4-16.5-37-37-37s-37,16.5-37,37v65.2c0,20.4,16.5,37,37,37ZM110.7,76.7c0-15.3,12.5-27.8,27.8-27.8s27.8,12.5,27.8,27.8v17.1h-55.5v-17.1ZM110.7,124.8h55.5v17.1c0,15.3-12.5,27.8-27.8,27.8s-27.8-12.5-27.8-27.8v-17.1Z"/>
  <path d="M94.5,120c2.2,0,3.9-1.8,3.9-3.9v-13.5c0-2.2-1.7-3.9-3.9-3.9s-3.9,1.7-3.9,3.9v13.5c0,2.2,1.8,3.9,3.9,3.9Z"/>
  <path d="M182.5,120c2.2,0,3.9-1.8,3.9-3.9v-13.5c0-2.2-1.8-3.9-3.9-3.9s-3.9,1.7-3.9,3.9v13.5c0,2.2,1.8,3.9,3.9,3.9Z"/>
  <path d="M197.7,94.4c-3.2,0-5.7,2.6-5.7,5.7v50c0,23.5-19.1,42.5-42.5,42.5h-21.8c-23.5,0-42.5-19.1-42.5-42.5v-50.3c0-3.2-2.6-5.8-5.7-5.8s-5.8,2.6-5.8,5.8v50.3c0,29.8,24.2,54,54,54h5.1v21.6h-25.2c-3.2,0-5.7,2.6-5.7,5.8s2.6,5.7,5.7,5.7h61.9c3.2,0,5.7-2.6,5.7-5.7s-2.6-5.8-5.7-5.8h-25.2v-21.6h5.1c29.8,0,54-24.2,54-54v-50c0-3.2-2.6-5.7-5.8-5.7Z"/>
</svg>